<svg version="1.1" id="Layer_1" xmlns="http://www.w3.org/2000/svg" xmlns:xlink="http://www.w3.org/1999/xlink" x="0px" y="0px"
	 width="100%" viewBox="0 0 512 512" enable-background="new 0 0 512 512" xml:space="preserve">
<style>
	path { fill: #000000; }
	@media (prefers-color-scheme: dark) {
		path { fill: #ffffff; }
	}
</style>
<path fill="#000000" opacity="1.000000" stroke="none"
	d="
M368.657410,372.793365 
	C354.174133,379.584869 339.210907,382.201111 323.685211,382.141724 
	C312.205475,382.097809 300.703979,381.262238 289.269867,383.060333 
	C273.453888,385.547516 263.401550,394.923981 257.282806,409.318756 
	C249.197937,428.338989 249.189941,448.227051 250.567139,468.281464 
	C251.405838,480.494812 254.721878,492.175751 258.558990,503.728760 
	C259.172211,505.575195 260.204102,507.390930 259.423096,509.479218 
	C257.448914,510.477905 256.227509,509.026794 254.959595,508.130188 
	C216.849884,481.180206 192.715775,445.428345 185.476608,398.767822 
	C179.702438,361.550018 183.773849,326.101379 202.921036,293.076172 
	C220.564011,262.645508 246.509125,242.814865 280.116028,232.861664 
	C294.908356,228.480667 310.042389,226.616302 325.476837,226.745255 
	C348.302368,226.935989 371.132324,227.139633 393.955719,226.898376 
	C420.042633,226.622620 445.242950,221.786713 469.064423,210.749908 
	C471.152100,209.782669 471.169769,209.820831 475.138702,210.015640 
	C467.701447,238.625397 449.891388,258.376984 423.560089,272.660767 
	C432.708954,273.477722 440.110474,270.630280 447.959869,269.703613 
	C448.142517,273.115234 445.744171,274.184357 444.087433,275.509949 
	C431.199188,285.822205 416.367004,291.084808 399.978058,292.289185 
	C375.823730,294.064178 351.699005,291.510956 327.549683,291.879150 
	C311.508209,292.123779 296.027466,294.065308 281.964325,302.593597 
	C272.912323,308.082947 265.848175,315.442352 260.565399,324.528748 
	C259.463531,326.423920 257.735596,328.342621 258.711151,330.970032 
	C260.936951,332.198303 263.044434,331.043304 265.016357,330.538239 
	C277.743530,327.278381 290.676941,327.337097 303.682526,327.482239 
	C337.474670,327.859344 371.307465,328.909393 404.885345,323.621307 
	C407.507568,323.208374 410.081665,322.472229 412.663849,321.828949 
	C414.449188,321.384155 416.206635,320.868469 418.237701,322.672607 
	C412.889648,334.382477 402.896912,341.455994 392.809875,348.208954 
	C393.183533,350.474243 395.867737,350.025635 396.381592,353.177887 
	C389.160553,361.425232 379.413635,367.463165 368.657410,372.793365 
z"/>
<path fill="#000000" opacity="1.000000" stroke="none" 
	d="
M256.493378,190.582657 
	C207.461151,220.392014 181.913345,264.167267 176.996918,320.955139 
	C151.122940,297.300781 135.145630,268.598236 129.930023,234.270020 
	C124.700897,199.852814 131.266953,167.434006 149.543396,136.218033 
	C140.313126,137.419540 135.623825,144.200928 129.019638,146.859802 
	C126.981453,144.621552 128.171204,142.694077 128.664383,140.880081 
	C136.031754,113.781830 150.447693,91.349869 173.122330,74.547722 
	C177.554443,71.263489 180.775284,67.340446 183.149719,62.412323 
	C194.156479,39.568069 210.555511,21.220907 230.689560,6.061065 
	C235.477493,2.456014 236.902390,3.035913 238.122345,9.107542 
	C240.891296,22.888340 241.997849,36.739574 240.502426,50.808380 
	C239.445328,60.753601 239.785355,60.661163 249.120499,63.664829 
	C266.913849,69.389999 282.453644,78.695198 294.747375,93.007584 
	C299.924561,99.034920 303.861664,105.772537 305.646637,113.548225 
	C306.824005,118.677124 309.596161,122.616928 313.355621,126.079453 
	C320.938568,133.063461 329.729431,138.025330 339.271118,141.764038 
	C341.130798,142.492706 342.950531,143.322922 344.807129,144.059906 
	C348.067902,145.354279 348.681152,147.271301 346.591522,150.215744 
	C338.292755,161.909348 327.402283,168.036835 312.683868,167.638428 
	C295.234650,167.166077 277.706177,165.741867 260.364044,169.227112 
	C245.232132,172.268158 231.484467,178.205933 219.992477,188.776398 
	C219.382462,189.337509 218.835754,189.974319 218.311417,190.618103 
	C218.122009,190.850662 218.084869,191.207260 217.693344,192.308975 
	C232.590851,188.666489 247.005737,184.229614 262.545959,185.961609 
	C261.061401,188.605698 258.586029,189.039017 256.493378,190.582657 
z"/>
<path fill="#000000" opacity="1.000000" stroke="none" 
	d="
M283.335327,46.186378 
	C282.449493,52.748932 280.084198,58.446350 278.221741,64.287643 
	C277.075592,67.882477 275.116180,69.059731 271.518219,66.982574 
	C264.749298,63.074745 257.546173,60.104843 250.192398,57.455250 
	C245.641418,55.815517 245.351776,54.304665 248.866776,50.779827 
	C257.763458,41.858253 268.114166,35.035774 279.716278,30.166727 
	C283.823029,28.443254 285.426697,29.535814 285.135742,33.972630 
	C284.876709,37.922756 283.992798,41.831905 283.335327,46.186378 
z"/>
</svg>